HIERARCHY
ROOT hip
{
  OFFSET 0.0 0.0 0.0
  CHANNELS 6 Xposition Yposition Zposition Zrotation Yrotation Xrotation
  JOINT abdomen
  {
    OFFSET 0.0 20.6881 -0.73152
    CHANNELS 3 Zrotation Xrotation Yrotation
    JOINT chest
    {
      OFFSET 0.0 11.7043 -0.48768
      CHANNELS 3 Zrotation Xrotation Yrotation
      JOINT neck
      {
        OFFSET 0.0 22.1894 -2.19456
        CHANNELS 3 Zrotation Xrotation Yrotation
        JOINT head
        {
          OFFSET -0.24384 7.07133 1.2192
          CHANNELS 3 Zrotation Xrotation Yrotation
          JOINT leftEye
          {
            OFFSET 4.14528 8.04674 8.04672
            CHANNELS 3 Zrotation Xrotation Yrotation
            End Site
            {
              OFFSET 1.0 0.0 0.0
            }
          }
          JOINT rightEye
          {
            OFFSET -3.6576 8.04674 8.04672
            CHANNELS 3 Zrotation Xrotation Yrotation
            End Site
            {
              OFFSET 1.0 0.0 0.0
            }
          }
        }
      }
      JOINT rCollar
      {
        OFFSET -2.68224 19.2634 -4.8768
        CHANNELS 3 Zrotation Xrotation Yrotation
        JOINT rShldr
        {
          OFFSET -8.77824 -1.95073 1.46304
          CHANNELS 3 Zrotation Xrotation Yrotation
          JOINT rForeArm
          {
            OFFSET -28.1742 -1.7115 0.48768
            CHANNELS 3 Zrotation Xrotation Yrotation
            JOINT rHand
            {
              OFFSET -22.5879 0.773209 7.07136
              CHANNELS 3 Zrotation Xrotation Yrotation
              JOINT rThumb1
              {
                OFFSET -1.2192 -0.487915 3.41376
                CHANNELS 3 Zrotation Xrotation Yrotation
                JOINT rThumb2
                {
                  OFFSET -3.37035 -0.52449 3.41376
                  CHANNELS 3 Zrotation Xrotation Yrotation
                  End Site
                  {
                    OFFSET -1.78271 -1.18214 1.43049
                  }
                }
              }
              JOINT rIndex1
              {
                OFFSET -7.75947 0.938293 5.60832
                CHANNELS 3 Zrotation Xrotation Yrotation
                JOINT rIndex2
                {
                  OFFSET -2.54057 -0.884171 1.56538
                  CHANNELS 3 Zrotation Xrotation Yrotation
                  End Site
                  {
                    OFFSET -1.62519 -0.234802 1.16502
                  }
                }
              }
              JOINT rMid1
              {
                OFFSET -8.24714 1.18213 3.41376
                CHANNELS 3 Zrotation Xrotation Yrotation
                JOINT rMid2
                {
                  OFFSET -3.10165 -0.590103 1.0647
                  CHANNELS 3 Zrotation Xrotation Yrotation
                  End Site
                  {
                    OFFSET -2.48547 -0.328903 0.83742
                  }
                }
              }
              JOINT rRing1
              {
                OFFSET -8.82822 0.546677 1.51678
                CHANNELS 3 Zrotation Xrotation Yrotation
                JOINT rRing2
                {
                  OFFSET -2.60934 -0.819778 -0.0198488
                  CHANNELS 3 Zrotation Xrotation Yrotation
                  End Site
                  {
                    OFFSET -2.33842 -0.294052 0.168128
                  }
                }
              }
              JOINT rPinky1
              {
                OFFSET -8.27202 -0.0477905 -0.4584
                CHANNELS 3 Zrotation Xrotation Yrotation
                JOINT rPinky2
                {
                  OFFSET -1.82734 -0.647385 -0.700984
                  CHANNELS 3 Zrotation Xrotation Yrotation
                  End Site
                  {
                    OFFSET -1.69225 -0.51767 -0.607171
                  }
                }
              }
            }
          }
        }
      }
      JOINT lCollar
      {
        OFFSET 2.68224 19.2634 -4.8768
        CHANNELS 3 Zrotation Xrotation Yrotation
        JOINT lShldr
        {
          OFFSET 8.77824 -1.95073 1.46304
          CHANNELS 3 Zrotation Xrotation Yrotation
          JOINT lForeArm
          {
            OFFSET 28.1742 -1.7115 0.48768
            CHANNELS 3 Zrotation Xrotation Yrotation
            JOINT lHand
            {
              OFFSET 22.5879 0.773209 7.07136
              CHANNELS 3 Zrotation Xrotation Yrotation
              JOINT lThumb1
              {
                OFFSET 1.2192 -0.487915 3.41376
                CHANNELS 3 Zrotation Xrotation Yrotation
                JOINT lThumb2
                {
                  OFFSET 3.37035 -0.52449 3.41376
                  CHANNELS 3 Zrotation Xrotation Yrotation
                  End Site
                  {
                    OFFSET 1.78271 -1.18214 1.43049
                  }
                }
              }
              JOINT lIndex1
              {
                OFFSET 7.75947 0.938293 5.60832
                CHANNELS 3 Zrotation Xrotation Yrotation
                JOINT lIndex2
                {
                  OFFSET 2.54057 -0.884171 1.56538
                  CHANNELS 3 Zrotation Xrotation Yrotation
                  End Site
                  {
                    OFFSET 1.62519 -0.234802 1.16502
                  }
                }
              }
              JOINT lMid1
              {
                OFFSET 8.24714 1.18213 3.41376
                CHANNELS 3 Zrotation Xrotation Yrotation
                JOINT lMid2
                {
                  OFFSET 3.10165 -0.590103 1.0647
                  CHANNELS 3 Zrotation Xrotation Yrotation
                  End Site
                  {
                    OFFSET 2.48547 -0.328903 0.83742
                  }
                }
              }
              JOINT lRing1
              {
                OFFSET 8.82822 0.546677 1.51678
                CHANNELS 3 Zrotation Xrotation Yrotation
                JOINT lRing2
                {
                  OFFSET 2.60934 -0.819778 -0.0198488
                  CHANNELS 3 Zrotation Xrotation Yrotation
                  End Site
                  {
                    OFFSET 2.33842 -0.294052 0.168128
                  }
                }
              }
              JOINT lPinky1
              {
                OFFSET 8.27202 -0.0477905 -0.4584
                CHANNELS 3 Zrotation Xrotation Yrotation
                JOINT lPinky2
                {
                  OFFSET 1.82734 -0.647385 -0.700984
                  CHANNELS 3 Zrotation Xrotation Yrotation
                  End Site
                  {
                    OFFSET 1.69225 -0.51767 -0.607171
                  }
                }
              }
            }
          }
        }
      }
    }
  }
  JOINT rButtock
  {
    OFFSET -8.77824 4.35084 1.2192
    CHANNELS 3 Zrotation Xrotation Yrotation
    JOINT rThigh
    {
      OFFSET 0.0 -1.70687 -2.19456
      CHANNELS 3 Zrotation Xrotation Yrotation
      JOINT rShin
      {
        OFFSET 0.0 -36.8199 0.73152
        CHANNELS 3 Zrotation Xrotation Yrotation
        JOINT rFoot
        {
          OFFSET 0.73152 -45.1104 -5.12064
          CHANNELS 3 Zrotation Xrotation Yrotation
          End Site
          {
            OFFSET -1.1221 -3.69964 12.103
          }
        }
      }
    }
  }
  JOINT lButtock
  {
    OFFSET 8.77824 4.35084 1.2192
    CHANNELS 3 Zrotation Xrotation Yrotation
    JOINT lThigh
    {
      OFFSET 0.0 -1.70687 -2.19456
      CHANNELS 3 Zrotation Xrotation Yrotation
      JOINT lShin
      {
        OFFSET 0.0 -36.8199 0.73152
        CHANNELS 3 Zrotation Xrotation Yrotation
        JOINT lFoot
        {
          OFFSET -0.73152 -45.1104 -5.12064
          CHANNELS 3 Zrotation Xrotation Yrotation
          End Site
          {
            OFFSET 1.1221 -3.69964 12.103
          }
        }
      }
    }
  }
}
MOTION
Frames: 5
Frame Time: 0.00833333
0.0 80.9269 0.0 -293.562 -85.252 301.166 -1.4885 -1.23804 -2.09879 2.91417 -14.8187 -0.401083 -2.40072 0.148758 -0.373364 -1.34799 31.354 -3.6086 -0.0 0.0 0.0 -0.0 0.0 0.0 0.0 0.0 0.0 0.0 0.0 0.0 0.0 0.0 0.0 -0.0741934 -7.7704 -1.09881 5.41361e-10 6.40438e-11 1.22223e-09 9.33569e-10 1.06348e-10 2.11803e-09 5.41364e-10 6.40425e-11 1.22223e-09 7.73091 5.47488 0.417314 5.41361e-10 6.40411e-11 1.22223e-09 2.90554 0.965183 0.102902 5.41367e-10 6.40413e-11 1.22223e-09 10.2786 0.731801 0.0259123 5.41355e-10 6.40424e-11 1.22225e-09 2.22167 -0.733487 -0.20892 0.0 0.0 0.0 0.0 0.0 0.0 0.0 0.0 0.0 0.028811 4.83303 -0.680884 -3.89967e-10 1.1159e-09 1.51511e-09 -6.70249e-10 1.92368e-09 2.61479e-09 -3.89973e-10 1.11589e-09 1.51511e-09 -7.73091 5.47488 -0.417314 -3.8997e-10 1.11589e-09 1.51511e-09 -2.90554 0.965183 -0.102902 -3.89975e-10 1.11589e-09 1.51511e-09 -10.2786 0.731801 -0.0259123 -3.89963e-10 1.11589e-09 1.51511e-09 -2.22167 -0.733487 0.20892 -2.03217e-16 0.0 -3.88251e-19 2.29879 -33.8232 2.53209 0.00779327 18.4788 0.547268 -3.23013 -10.3645 -22.7868 2.03217e-16 0.0 3.88251e-19 -13.1696 1.07607 -6.09938 0.139378 28.0946 -0.802287 -3.09933 1.42413 -13.5847
-2.021500000000003 81.1283 -0.8069999999999986 -281.248 -86.1396 288.302 -0.0260553 -0.528334 -1.20667 2.21774 -14.7613 -0.217413 -2.6174 0.115417 -0.279138 -1.29485 31.5739 -3.40358 -0.0 0.0 0.0 -0.0 0.0 0.0 0.0 0.0 0.0 0.0 0.0 0.0 0.0 0.0 0.0 -0.0649158 -7.28515 -1.02939 8.29418e-10 2.7762e-10 7.74199e-10 1.4331e-09 4.76255e-10 1.34322e-09 8.29422e-10 2.77619e-10 7.74193e-10 7.73091 5.47488 0.417314 8.29417e-10 2.77618e-10 7.74197e-10 2.90554 0.965183 0.102902 8.29423e-10 2.77618e-10 7.742e-10 10.2786 0.731801 0.0259123 8.29412e-10 2.77619e-10 7.74217e-10 2.22167 -0.733487 -0.20892 0.0 0.0 0.0 0.0 0.0 0.0 0.0 0.0 0.0 0.0234542 4.31836 -0.60813 -1.53116e-10 6.02438e-10 9.86277e-10 -2.62074e-10 1.037e-09 1.70152e-09 -1.53123e-10 6.02435e-10 9.86278e-10 -7.73091 5.47488 -0.417314 -1.53118e-10 6.02434e-10 9.86275e-10 -2.90554 0.965183 -0.102902 -1.53123e-10 6.02434e-10 9.86278e-10 -10.2786 0.731801 -0.0259123 -1.5311e-10 6.02437e-10 9.86273e-10 -2.22167 -0.733487 0.20892 -2.03217e-16 0.0 -3.88251e-19 4.12814 -32.0905 3.01724 0.0181406 18.951 0.442944 -2.91465 -10.5484 -21.3224 2.03217e-16 0.0 3.88251e-19 -11.058 -2.29386 -2.28008 0.35128 34.9249 -0.88196 -2.38789 -0.830948 -6.5146
-3.8024000000000058 81.3157 -1.6045000000000016 -264.972 -86.5321 271.33 1.53064 0.330329 -0.297871 1.63366 -14.6641 -0.000682155 -2.8284 0.112791 -0.203369 -1.23815 31.7462 -3.23642 -0.0 0.0 0.0 -0.0 0.0 0.0 0.0 0.0 0.0 0.0 0.0 0.0 0.0 0.0 0.0 -0.0564333 -6.78705 -0.958335 1.08763e-09 4.49022e-10 3.3047e-10 1.88095e-09 7.73135e-10 5.75987e-10 1.08763e-09 4.4902e-10 3.30459e-10 7.73091 5.47488 0.417314 1.08763e-09 4.49019e-10 3.30467e-10 2.90554 0.965183 0.102902 1.08763e-09 4.49019e-10 3.30467e-10 10.2786 0.731801 0.0259123 1.08762e-09 4.4902e-10 3.30481e-10 2.22167 -0.733487 -0.20892 0.0 0.0 0.0 0.0 0.0 0.0 0.0 0.0 0.0 0.020139 3.95792 -0.557233 1.23695e-10 9.11849e-11 4.28577e-10 2.15025e-10 1.54371e-10 7.38298e-10 1.23686e-10 9.11832e-11 4.28577e-10 -7.73091 5.47488 -0.417314 1.23692e-10 9.1181e-11 4.28574e-10 -2.90554 0.965183 -0.102902 1.23688e-10 9.11816e-11 4.28577e-10 -10.2786 0.731801 -0.0259123 1.23701e-10 9.11839e-11 4.28572e-10 -2.22167 -0.733487 0.20892 -2.03217e-16 0.0 -3.88251e-19 6.15382 -30.2843 3.85077 0.0197916 19.3096 0.303567 -2.85555 -11.3494 -20.1023 2.03217e-16 0.0 3.88251e-19 -8.3776 -6.3631 1.28863 0.52598 42.4465 -0.989703 -1.22867 -1.67239 0.134874
-5.259399999999999 81.3992 -2.414300000000001 -249.729 -86.7347 255.353 3.24598 1.1517 0.441812 1.28193 -14.5192 0.221744 -2.99022 0.200799 -0.165801 -1.18332 31.8361 -3.16221 -0.0 0.0 0.0 -0.0 0.0 0.0 0.0 0.0 0.0 0.0 0.0 0.0 0.0 0.0 0.0 -0.0498893 -6.36132 -0.897754 9.86341e-10 3.62485e-10 1.89707e-10 1.70679e-09 6.24158e-10 3.32139e-10 9.86347e-10 3.62483e-10 1.89695e-10 7.73091 5.47488 0.417314 9.8634e-10 3.62482e-10 1.89704e-10 2.90554 0.965183 0.102902 9.86345e-10 3.62482e-10 1.89703e-10 10.2786 0.731801 0.0259123 9.86336e-10 3.62483e-10 1.89714e-10 2.22167 -0.733487 -0.20892 0.0 0.0 0.0 0.0 0.0 0.0 0.0 0.0 0.0 0.0195071 3.98408 -0.560839 1.65586e-10 -8.46377e-11 3.84688e-11 2.86284e-10 -1.48223e-10 6.48785e-11 1.65577e-10 -8.46381e-11 3.84688e-11 -7.73091 5.47488 -0.417314 1.65584e-10 -8.46414e-11 3.84656e-11 -2.90554 0.965183 -0.102902 1.6558e-10 -8.46408e-11 3.8468e-11 -10.2786 0.731801 -0.0259123 1.65594e-10 -8.46389e-11 3.84624e-11 -2.22167 -0.733487 0.20892 -2.03217e-16 0.0 -3.88251e-19 8.25698 -29.1955 4.41949 -0.00325287 20.3184 0.147318 -2.8325 -12.1639 -19.1308 2.03217e-16 0.0 3.88251e-19 -5.37351 -11.069 3.82758 0.574123 50.1552 -1.1789 -0.906004 2.11445 4.19183
-6.434600000000003 81.3649 -3.2394999999999996 -235.482 -86.9757 240.463 5.36266 1.94075 0.884678 1.28781 -14.2373 0.461216 -3.08511 0.432322 -0.177368 -1.13946 31.8082 -3.21028 -0.0 0.0 0.0 -0.0 0.0 0.0 0.0 0.0 0.0 0.0 0.0 0.0 0.0 0.0 0.0 -0.0448653 -6.02366 -0.849756 2.21727e-10 -2.11532e-10 5.77469e-10 3.84991e-10 -3.67451e-10 1.00129e-09 2.21735e-10 -2.11534e-10 5.77457e-10 7.73091 5.47488 0.417314 2.21729e-10 -2.11536e-10 5.77466e-10 2.90554 0.965183 0.102902 2.21733e-10 -2.11535e-10 5.77464e-10 10.2786 0.731801 0.0259123 2.21722e-10 -2.11533e-10 5.77473e-10 2.22167 -0.733487 -0.20892 0.0 0.0 0.0 0.0 0.0 0.0 0.0 0.0 0.0 0.0238005 4.64521 -0.65402 -2.01587e-10 2.85276e-10 -1.2592e-10 -3.49356e-10 4.93076e-10 -2.18086e-10 -2.01596e-10 2.85276e-10 -1.25918e-10 -7.73091 5.47488 -0.417314 -2.01589e-10 2.85272e-10 -1.25921e-10 -2.90554 0.965183 -0.102902 -2.01594e-10 2.85272e-10 -1.2592e-10 -10.2786 0.731801 -0.0259123 -2.0158e-10 2.85273e-10 -1.25926e-10 -2.22167 -0.733487 0.20892 -2.03217e-16 0.0 -3.88251e-19 10.7049 -29.2952 4.61561 -0.0752125 22.4808 -0.11409 -2.8543 -13.0129 -18.4415 2.03217e-16 0.0 3.88251e-19 -2.1949 -16.8324 4.93595 0.547829 59.3628 -1.41173 -2.06051 11.2507 4.40648
